<?xml version="1.0" standalone="no"?>
<!DOCTYPE svg PUBLIC "-//W3C//DTD SVG 20010904//EN"
 "http://www.w3.org/TR/2001/REC-SVG-20010904/DTD/svg10.dtd">
<svg version="1.0" xmlns="http://www.w3.org/2000/svg"
 width="2048.000000pt" height="2048.000000pt" viewBox="0 0 2048.000000 2048.000000"
 preserveAspectRatio="xMidYMid meet">
<metadata>
Created by potrace 1.14, written by Peter Selinger 2001-2017
</metadata>
<g transform="translate(0.000000,2048.000000) scale(0.100000,-0.100000)"
fill="#000000" stroke="none">
<path d="M2875 12830 c-214 -154 -394 -283 -400 -288 -5 -4 -31 -22 -57 -40
-27 -18 -48 -38 -48 -43 0 -6 22 -36 49 -67 209 -244 358 -606 398 -972 7 -62
8 -1519 1 -1524 -46 -28 -202 -164 -347 -301 -252 -238 -357 -350 -423 -450
-115 -174 -212 -389 -291 -645 -33 -106 -94 -342 -103 -400 -2 -14 -7 -36 -10
-50 -6 -27 -7 -33 -23 -125 -20 -119 -22 -140 -12 -130 5 6 62 92 128 192 353
542 343 528 502 742 142 192 209 254 436 402 118 77 145 92 146 82 0 -4 1
-375 2 -823 l2 -815 450 0 c489 0 530 4 583 54 l29 26 1 560 c0 308 1 785 1
1061 l1 500 48 26 c26 13 79 43 117 65 39 22 102 57 140 78 39 21 102 56 140
77 251 137 866 433 1170 563 61 26 128 55 150 65 157 73 690 282 1020 401 121
44 234 86 251 94 33 15 60 56 50 74 -5 8 -141 11 -454 11 l-446 0 -166 -50
c-91 -27 -284 -90 -430 -141 -146 -50 -276 -94 -290 -99 -14 -4 -77 -27 -140
-50 -63 -22 -135 -48 -160 -57 -25 -8 -155 -56 -290 -105 -135 -49 -258 -94
-275 -100 -16 -5 -39 -14 -50 -19 -11 -5 -78 -31 -150 -58 -71 -27 -154 -58
-182 -70 l-53 -21 0 368 c0 487 -8 1045 -15 1107 -47 418 -195 772 -426 1019
-59 63 -168 157 -180 156 -2 -1 -179 -127 -394 -280z"/>
<path d="M5365 12774 c-194 -41 -380 -192 -464 -377 -109 -240 -64 -531 113
-724 267 -292 714 -296 983 -9 128 136 183 283 179 475 -5 187 -67 325 -205
462 -160 156 -382 220 -606 173z"/>
<path d="M7299 11118 c-1 -7 0 -21 1 -32 1 -12 -3 -16 -10 -11 -9 6 -9 2 -1
-12 12 -24 10 -63 -4 -63 -6 0 -6 -3 1 -8 15 -9 14 -284 0 -294 -7 -5 -6 -8 2
-8 7 0 10 -4 7 -10 -3 -5 -1 -10 6 -10 8 0 8 -4 2 -12 -6 -7 -9 -43 -7 -81 2
-44 -1 -65 -8 -61 -6 4 -6 -1 1 -14 12 -22 11 -49 -3 -71 -6 -9 -5 -12 1 -8 6
4 10 -25 10 -73 0 -49 -4 -77 -9 -74 -6 4 -5 -3 1 -14 12 -22 11 -49 -3 -71
-6 -9 -5 -12 1 -8 6 4 10 -25 10 -73 0 -49 -4 -77 -9 -74 -6 4 -5 -2 1 -13 12
-24 10 -63 -4 -63 -6 0 -5 -3 2 -8 12 -8 12 -119 0 -139 -4 -6 -2 -15 4 -19 8
-5 9 -3 4 6 -5 9 -4 11 3 6 8 -4 9 -14 4 -24 -5 -9 -8 -39 -7 -67 1 -27 -2
-55 -7 -62 -6 -7 -4 -14 3 -19 8 -5 9 -3 4 6 -5 9 -4 11 3 6 8 -5 9 -13 3 -24
-4 -9 -7 -48 -5 -87 2 -46 -1 -72 -9 -77 -9 -6 -9 -8 0 -8 15 0 13 -50 -2 -50
-6 0 -6 -3 1 -8 14 -10 15 -245 0 -254 -8 -5 -7 -8 1 -8 15 0 13 -50 -2 -50
-6 0 -6 -3 1 -8 15 -9 14 -284 0 -294 -7 -5 -6 -8 2 -8 7 0 10 -4 7 -10 -3 -5
-1 -10 6 -10 8 0 8 -4 2 -12 -6 -7 -9 -43 -7 -81 2 -44 -1 -65 -8 -61 -6 4 -6
-1 1 -14 12 -22 11 -49 -3 -71 -6 -9 -5 -12 1 -8 6 4 10 -25 10 -73 0 -49 -4
-77 -9 -74 -6 4 -5 -3 1 -14 12 -22 11 -49 -3 -71 -6 -9 -5 -12 1 -8 6 4 10
-25 10 -73 0 -49 -4 -77 -9 -74 -6 4 -5 -2 1 -13 12 -24 10 -63 -4 -63 -6 0
-5 -3 2 -8 12 -8 12 -119 0 -139 -4 -6 -2 -15 4 -19 8 -5 9 -3 4 6 -5 9 -4 11
3 6 8 -4 9 -14 4 -24 -5 -9 -8 -39 -7 -67 1 -27 -2 -55 -7 -62 -6 -7 -4 -14 3
-19 8 -5 9 -3 4 6 -5 9 -4 11 4 6 6 -4 8 -13 4 -19 -4 -6 -6 -26 -5 -45 2 -23
-1 -31 -9 -27 -8 6 -8 2 0 -14 12 -22 11 -52 -1 -61 -4 -3 6 -14 24 -24 17
-11 28 -15 25 -10 -4 7 274 11 308 4 6 -1 15 -1 20 0 21 4 95 1 104 -4 5 -4
13 -2 16 4 5 8 12 7 23 -2 9 -7 13 -8 10 -3 -7 11 178 12 189 1 3 -3 12 -1 20
5 9 9 13 8 13 0 0 -8 4 -8 14 1 9 9 11 17 5 25 -6 6 -6 14 -1 17 10 6 10 166
-1 183 -4 6 -3 14 2 17 10 7 9 126 -2 143 -4 6 -4 14 1 16 10 7 9 768 -1 784
-4 6 -3 14 2 17 10 7 9 126 -2 143 -4 6 -3 14 2 17 12 8 9 75 -3 95 -6 10 -5
12 3 7 8 -5 11 -3 9 6 -3 15 42 65 56 60 5 -2 13 3 17 10 7 10 9 10 9 1 0 -9
7 -10 23 -5 12 5 29 8 37 7 8 -1 21 3 28 8 8 6 12 5 12 -4 0 -11 2 -11 8 -1 5
7 29 13 55 15 26 1 47 5 47 8 0 4 19 7 42 7 22 1 44 6 48 12 6 9 9 9 14 1 4
-6 13 -8 19 -4 12 8 15 8 82 18 22 3 51 8 65 11 14 3 45 7 70 8 25 2 54 7 64
12 11 4 34 7 53 7 18 0 33 3 33 7 0 3 12 7 28 8 15 0 38 3 52 6 14 3 47 8 75
11 27 4 58 11 67 16 12 7 18 6 18 -2 0 -9 3 -9 14 0 7 6 21 9 30 5 9 -3 16 -1
16 5 0 6 7 8 17 4 12 -5 14 -3 8 8 -8 12 -6 12 8 0 14 -11 17 -11 17 0 0 11 2
11 10 -1 5 -8 10 -10 10 -4 0 6 12 11 28 11 15 1 39 4 54 7 40 9 87 16 133 21
22 2 40 4 40 5 0 3 41 11 73 14 17 1 35 5 38 9 3 3 12 3 20 0 8 -3 14 0 14 5
0 6 12 9 26 6 14 -3 33 1 42 8 13 11 14 11 7 -1 -6 -10 -4 -12 5 -6 7 4 27 10
44 12 17 2 40 5 51 7 12 1 26 5 31 9 6 3 21 5 32 2 12 -2 24 1 28 6 3 6 12 5
22 -3 12 -10 14 -10 8 0 -7 12 2 14 67 15 15 0 27 4 27 9 0 4 13 6 30 4 16 -2
32 -1 35 2 7 7 39 11 102 15 22 1 39 6 35 11 -3 5 5 7 16 4 12 -4 22 -3 22 1
0 4 12 8 28 8 15 0 44 4 66 8 21 4 48 8 60 9 12 1 27 6 34 10 7 4 12 2 12 -6
0 -9 3 -9 10 2 5 8 10 11 10 6 0 -6 5 -5 11 1 6 6 18 9 26 6 8 -3 19 0 24 8
12 19 9 120 -4 112 -6 -4 -7 -1 -1 8 13 21 14 103 1 111 -9 6 -9 8 -1 8 16 0
15 230 0 230 -8 0 -8 2 0 8 15 10 15 232 0 232 -8 0 -8 2 0 8 14 9 14 145 0
154 -8 6 -8 8 0 8 16 0 15 230 0 230 -8 0 -8 2 0 8 15 10 15 224 0 234 -8 6
-8 8 0 8 8 0 12 32 12 100 0 61 -4 97 -10 94 -5 -3 -4 3 4 15 11 17 11 25 0
42 -8 12 -9 18 -3 14 7 -4 10 3 9 19 l-2 26 -387 0 c-319 0 -388 -2 -392 -14
-3 -7 0 -19 6 -25 8 -8 8 -11 -1 -11 -9 0 -10 -5 -3 -18 6 -11 6 -24 0 -35 -7
-11 -6 -17 1 -17 8 0 8 -6 0 -20 -8 -14 -8 -20 0 -20 6 0 8 -5 4 -12 -11 -17
-12 -48 -3 -48 5 0 5 -11 0 -23 -5 -13 -5 -30 -1 -37 5 -8 6 -18 3 -23 -10
-16 -10 -57 0 -57 5 0 5 -5 -2 -13 -7 -10 -7 -17 0 -24 8 -8 8 -13 0 -17 -8
-5 -8 -13 -1 -27 6 -10 7 -19 2 -19 -10 0 -8 -48 2 -57 3 -3 1 -14 -4 -24 -7
-12 -6 -19 3 -22 9 -4 9 -7 0 -14 -7 -5 -9 -14 -3 -23 5 -8 5 -21 -1 -32 -7
-13 -6 -18 3 -18 9 0 9 -3 0 -12 -8 -8 -9 -15 -1 -25 7 -7 7 -13 3 -13 -10 0
-10 -67 -1 -77 3 -3 2 -16 -3 -29 -7 -16 -6 -24 1 -24 8 0 8 -4 0 -14 -9 -11
-9 -16 0 -21 8 -6 8 -9 -1 -15 -9 -5 -9 -13 -2 -26 7 -13 7 -26 1 -37 -7 -12
-6 -17 1 -17 6 0 8 -5 4 -12 -10 -16 -13 -48 -4 -48 8 0 6 -37 -3 -46 -4 -4
-2 -13 4 -21 9 -9 8 -13 0 -13 -8 0 -9 -6 -2 -18 6 -11 6 -24 0 -35 -7 -12 -6
-17 2 -17 7 0 8 -4 2 -12 -5 -7 -8 -24 -6 -38 4 -31 4 -38 0 -70 -1 -14 1 -28
6 -31 5 -3 2 -12 -5 -20 -12 -12 -148 -14 -853 -14 l-839 0 -1 25 c0 14 -4 30
-8 37 -4 6 -4 14 1 17 10 6 9 698 -2 715 -6 9 -5 12 2 7 7 -4 10 1 9 14 -1 11
-4 20 -8 20 -4 0 -7 12 -6 28 1 69 -4 113 -11 108 -5 -3 -8 9 -7 27 2 18 -5
40 -14 51 -9 11 -10 16 -3 12 14 -8 16 6 3 19 -6 6 -12 21 -14 35 -2 14 -9 38
-16 54 -6 16 -13 36 -14 45 -2 9 -16 44 -33 78 l-29 63 -307 0 c-239 0 -308
-3 -309 -12z"/>
<path d="M6000 10374 c-19 -7 -98 -37 -175 -65 -215 -79 -382 -166 -630 -327
-55 -36 -124 -83 -152 -104 l-53 -39 0 -1104 c0 -809 3 -1111 11 -1129 7 -15
25 -29 43 -35 18 -5 218 -9 466 -8 481 2 472 1 513 66 l22 36 2 1363 c1 749
-2 1362 -5 1361 -4 -1 -23 -7 -42 -15z"/>
<path d="M11730 10225 c-94 -17 -105 -20 -161 -39 -271 -93 -444 -293 -515
-596 -15 -66 -18 -146 -20 -690 -2 -358 1 -640 7 -675 5 -33 12 -75 14 -94 8
-53 54 -181 87 -243 115 -216 336 -358 618 -398 70 -10 1135 -7 1185 3 191 39
330 106 441 212 116 112 192 253 231 429 23 101 28 1289 7 1411 -42 236 -145
413 -309 530 -110 79 -202 117 -355 146 -84 15 -157 17 -625 17 -397 0 -549
-3 -605 -13z m991 -656 c92 -19 154 -63 201 -139 39 -65 42 -103 42 -590 0
-397 -2 -440 -19 -493 -24 -75 -86 -146 -157 -178 l-53 -24 -400 0 -400 0 -57
28 c-72 35 -131 102 -154 176 -16 50 -18 104 -19 481 0 234 4 452 8 485 19
129 96 218 214 250 64 17 716 21 794 4z"/>
<path d="M14680 10174 c-274 -49 -479 -184 -595 -389 -102 -183 -129 -437 -70
-667 36 -137 89 -224 206 -339 71 -70 106 -95 181 -133 100 -50 243 -90 350
-100 37 -3 233 -6 436 -6 462 -1 500 -8 542 -97 23 -50 20 -118 -7 -167 -21
-35 -88 -72 -148 -80 -22 -3 -379 -5 -792 -6 l-753 0 0 -330 0 -330 783 1
c430 0 811 5 847 10 226 32 400 112 536 246 69 68 163 208 164 244 0 9 3 19 7
23 8 8 8 7 32 119 33 151 21 370 -26 502 -63 173 -191 316 -370 412 -41 23
-176 71 -223 80 -138 27 -191 30 -555 32 -214 1 -406 4 -425 7 -89 14 -137 62
-144 147 -6 79 37 144 107 165 12 3 362 8 776 9 415 2 757 5 759 8 2 2 5 150
6 330 l1 325 -775 -1 c-603 -1 -792 -4 -850 -15z"/>
<path d="M16624 9863 l1 -328 389 -3 c219 -1 392 -6 396 -11 3 -5 5 -455 5
-1000 l0 -991 335 2 335 3 0 998 -1 997 397 0 397 0 -1 328 -2 327 -1126 3
-1126 2 1 -327z"/>
<path d="M10495 9099 c-4 -6 -13 -8 -20 -5 -7 2 -23 -3 -36 -11 -17 -13 -20
-13 -14 -2 6 11 5 12 -6 2 -7 -7 -23 -13 -35 -13 -13 0 -26 -5 -29 -10 -4 -6
-15 -8 -25 -5 -10 3 -21 1 -25 -5 -3 -5 -11 -10 -16 -10 -6 0 -8 4 -4 10 3 5
-7 3 -21 -5 -15 -8 -31 -12 -36 -9 -4 3 -8 1 -8 -4 0 -5 -6 -9 -12 -9 -43 -3
-68 -8 -68 -14 0 -4 -8 -6 -17 -4 -10 1 -23 -1 -28 -6 -6 -4 -26 -10 -45 -12
-19 -2 -42 -7 -50 -9 -78 -26 -157 -44 -172 -40 -5 1 -8 -2 -8 -8 0 -5 -7 -7
-15 -4 -8 4 -15 1 -15 -5 0 -6 -7 -8 -15 -5 -9 4 -15 0 -16 -7 0 -8 -2 -24 -3
-36 -2 -13 2 -23 7 -23 5 0 5 -6 -2 -13 -7 -10 -7 -17 0 -24 8 -8 8 -13 0 -17
-8 -5 -8 -13 -1 -27 6 -10 7 -19 2 -19 -10 0 -8 -48 2 -57 3 -3 1 -14 -4 -24
-7 -12 -6 -19 3 -22 9 -4 9 -7 0 -14 -7 -5 -9 -14 -3 -23 5 -8 5 -21 -1 -32
-7 -13 -6 -18 2 -18 8 0 9 -4 0 -13 -8 -10 -7 -17 1 -25 7 -7 8 -12 2 -12 -10
0 -10 -67 -1 -77 3 -3 2 -16 -3 -29 -7 -16 -6 -24 1 -24 8 0 8 -4 0 -14 -9
-11 -9 -16 0 -21 8 -6 8 -9 -1 -15 -9 -5 -9 -13 -2 -26 7 -13 7 -26 1 -37 -7
-12 -6 -17 1 -17 6 0 8 -5 4 -12 -10 -16 -13 -48 -4 -48 8 0 6 -37 -3 -46 -4
-4 -2 -13 4 -21 9 -9 8 -13 0 -13 -8 0 -9 -6 -2 -18 6 -11 6 -24 0 -35 -7 -12
-6 -17 2 -17 7 0 8 -4 2 -12 -10 -14 -10 -55 0 -64 3 -3 2 -16 -3 -28 -4 -13
-4 -29 0 -36 5 -8 4 -22 -1 -32 -7 -13 -6 -18 3 -18 9 0 9 -3 0 -12 -7 -7 -8
-17 -1 -30 5 -10 6 -18 1 -18 -10 0 -8 -48 2 -57 3 -3 1 -14 -5 -24 -6 -13 -6
-19 0 -19 7 0 7 -8 1 -24 -5 -15 -5 -27 3 -35 6 -6 7 -11 1 -11 -5 0 -10 -9
-10 -20 0 -11 4 -20 9 -20 5 0 4 -6 -2 -14 -22 -26 12 -34 144 -34 72 0 135
-1 140 -2 6 -1 15 -1 20 0 21 4 95 1 104 -4 5 -4 13 -2 16 4 5 8 12 7 23 -2 9
-7 13 -8 10 -3 -7 11 262 12 280 1 6 -3 13 -2 17 4 4 6 10 8 15 5 4 -3 8 24 8
60 0 42 -4 63 -11 58 -6 -4 -7 -1 -1 8 13 21 14 103 1 111 -9 6 -9 8 -1 8 16
0 15 230 0 230 -8 0 -8 2 0 8 15 10 15 224 0 234 -8 6 -8 8 0 8 8 0 12 32 12
100 0 72 -3 98 -12 93 -8 -5 -8 -3 1 8 14 18 15 161 0 152 -6 -4 -7 -1 -1 8
13 21 14 103 1 111 -9 6 -9 8 -1 8 16 0 15 230 0 230 -8 0 -8 2 0 8 12 7 16
132 5 132 -4 0 -13 -6 -20 -12 -11 -10 -13 -10 -7 0 9 15 0 16 -9 1z"/>
</g>
</svg>
